<svg id="svg" version="1.1" xmlns="http://www.w3.org/2000/svg" xmlns:xlink="http://www.w3.org/1999/xlink" width="400" height="400" viewBox="0, 0, 400,400"><g id="svgg"><path id="path0" d="M183.600 5.573 C 183.600 5.777,181.935 6.044,179.900 6.164 C 172.495 6.602,170.000 6.871,170.000 7.232 C 170.000 7.434,168.920 7.600,167.600 7.600 C 166.280 7.600,165.200 7.753,165.200 7.941 C 165.200 8.128,163.758 8.393,161.997 8.528 C 160.235 8.664,158.460 8.954,158.053 9.171 C 157.647 9.389,156.658 9.611,155.857 9.665 C 155.056 9.719,154.400 9.907,154.400 10.082 C 154.400 10.257,153.693 10.400,152.829 10.400 C 151.964 10.400,150.998 10.659,150.681 10.976 C 150.341 11.316,149.738 11.456,149.211 11.319 C 148.720 11.190,148.194 11.285,148.043 11.530 C 147.892 11.774,147.177 12.020,146.454 12.075 C 145.731 12.130,145.052 12.315,144.946 12.487 C 144.840 12.659,144.324 12.800,143.800 12.800 C 143.276 12.800,142.736 12.980,142.600 13.200 C 142.464 13.420,141.913 13.600,141.376 13.600 C 140.839 13.600,140.400 13.780,140.400 14.000 C 140.400 14.220,139.860 14.400,139.200 14.400 C 138.540 14.400,138.000 14.580,138.000 14.800 C 138.000 15.020,137.537 15.200,136.971 15.200 C 136.406 15.200,135.689 15.454,135.378 15.764 C 135.068 16.075,134.451 16.234,134.007 16.118 C 133.553 15.999,133.200 16.102,133.200 16.353 C 133.200 16.599,132.660 16.800,132.000 16.800 C 131.340 16.800,130.800 16.980,130.800 17.200 C 130.800 17.420,130.440 17.600,130.000 17.600 C 129.560 17.600,129.200 17.780,129.200 18.000 C 129.200 18.220,128.838 18.400,128.395 18.400 C 127.952 18.400,127.232 18.580,126.795 18.800 C 126.358 19.020,125.642 19.380,125.205 19.600 C 124.768 19.820,124.138 20.000,123.805 20.000 C 123.472 20.000,123.200 20.180,123.200 20.400 C 123.200 20.620,122.840 20.800,122.400 20.800 C 121.960 20.800,121.600 20.980,121.600 21.200 C 121.600 21.420,121.240 21.600,120.800 21.600 C 120.360 21.600,120.000 21.780,120.000 22.000 C 120.000 22.220,119.460 22.400,118.800 22.400 C 118.140 22.400,117.600 22.580,117.600 22.800 C 117.600 23.020,117.240 23.200,116.800 23.200 C 116.360 23.200,116.000 23.380,116.000 23.600 C 116.000 23.820,115.640 24.000,115.200 24.000 C 114.760 24.000,114.400 24.180,114.400 24.400 C 114.400 24.620,114.040 24.800,113.600 24.800 C 113.160 24.800,112.800 25.010,112.800 25.267 C 112.800 25.523,112.688 25.622,112.552 25.485 C 112.316 25.250,106.434 28.168,106.003 28.733 C 105.891 28.880,105.530 29.059,105.200 29.130 C 104.870 29.202,104.540 29.427,104.467 29.630 C 104.393 29.834,103.988 30.000,103.567 30.000 C 103.145 30.000,102.800 30.180,102.800 30.400 C 102.800 30.620,102.522 30.800,102.183 30.800 C 101.844 30.800,101.180 31.160,100.708 31.600 C 100.236 32.040,99.613 32.400,99.325 32.400 C 99.036 32.400,98.800 32.580,98.800 32.800 C 98.800 33.020,98.517 33.200,98.171 33.200 C 97.376 33.200,96.276 34.275,96.575 34.760 C 96.699 34.961,96.436 35.030,95.990 34.913 C 95.493 34.783,94.913 34.992,94.490 35.453 C 94.110 35.867,93.260 36.473,92.600 36.800 C 91.940 37.127,91.109 37.711,90.753 38.097 C 90.397 38.484,89.929 38.800,89.712 38.800 C 89.496 38.800,88.754 39.340,88.063 40.000 C 87.372 40.660,86.536 41.200,86.204 41.200 C 85.872 41.200,85.600 41.347,85.600 41.526 C 85.600 41.706,84.872 42.262,83.983 42.761 C 83.094 43.261,81.932 44.104,81.401 44.635 C 80.871 45.166,80.291 45.600,80.114 45.600 C 79.699 45.600,76.887 48.023,74.197 50.700 C 73.036 51.855,71.875 52.800,71.616 52.800 C 71.357 52.800,69.826 54.150,68.213 55.800 C 66.600 57.450,65.082 58.800,64.840 58.800 C 64.598 58.800,64.400 59.070,64.400 59.400 C 64.400 59.730,64.248 60.000,64.061 60.000 C 63.348 60.000,61.935 61.571,62.225 62.041 C 62.419 62.355,62.355 62.419,62.041 62.225 C 61.571 61.935,60.000 63.348,60.000 64.061 C 60.000 64.248,59.730 64.400,59.400 64.400 C 59.070 64.400,58.800 64.598,58.800 64.840 C 58.800 65.082,57.450 66.600,55.800 68.213 C 54.150 69.826,52.800 71.357,52.800 71.616 C 52.800 71.875,51.855 73.036,50.700 74.197 C 48.023 76.887,45.600 79.699,45.600 80.114 C 45.600 80.291,45.166 80.871,44.635 81.401 C 44.104 81.932,43.261 83.094,42.761 83.983 C 42.262 84.872,41.706 85.600,41.526 85.600 C 41.347 85.600,41.200 85.872,41.200 86.204 C 41.200 86.536,40.660 87.372,40.000 88.063 C 39.340 88.754,38.800 89.496,38.800 89.712 C 38.800 89.929,38.484 90.397,38.097 90.753 C 37.711 91.109,37.127 91.940,36.800 92.600 C 36.473 93.260,35.867 94.110,35.453 94.490 C 34.992 94.913,34.783 95.493,34.913 95.990 C 35.030 96.436,34.961 96.699,34.760 96.575 C 34.275 96.276,33.200 97.376,33.200 98.171 C 33.200 98.517,33.020 98.800,32.800 98.800 C 32.580 98.800,32.400 99.036,32.400 99.325 C 32.400 99.613,32.040 100.236,31.600 100.708 C 31.160 101.180,30.800 101.844,30.800 102.183 C 30.800 102.522,30.620 102.800,30.400 102.800 C 30.180 102.800,30.000 103.145,30.000 103.567 C 30.000 103.988,29.833 104.393,29.630 104.467 C 29.426 104.540,29.201 104.870,29.130 105.200 C 29.058 105.530,28.880 105.891,28.733 106.003 C 28.168 106.434,25.250 112.316,25.485 112.552 C 25.622 112.688,25.523 112.800,25.267 112.800 C 25.010 112.800,24.800 113.160,24.800 113.600 C 24.800 114.040,24.620 114.400,24.400 114.400 C 24.180 114.400,24.000 114.760,24.000 115.200 C 24.000 115.640,23.820 116.000,23.600 116.000 C 23.380 116.000,23.200 116.360,23.200 116.800 C 23.200 117.240,23.020 117.600,22.800 117.600 C 22.580 117.600,22.400 118.140,22.400 118.800 C 22.400 119.460,22.220 120.000,22.000 120.000 C 21.780 120.000,21.600 120.360,21.600 120.800 C 21.600 121.240,21.420 121.600,21.200 121.600 C 20.980 121.600,20.800 121.960,20.800 122.400 C 20.800 122.840,20.620 123.200,20.400 123.200 C 20.180 123.200,20.000 123.472,20.000 123.805 C 20.000 124.138,19.792 124.813,19.538 125.305 C 18.542 127.231,18.400 127.617,18.400 128.395 C 18.400 128.838,18.220 129.200,18.000 129.200 C 17.780 129.200,17.600 129.560,17.600 130.000 C 17.600 130.440,17.420 130.800,17.200 130.800 C 16.980 130.800,16.800 131.340,16.800 132.000 C 16.800 132.660,16.599 133.200,16.353 133.200 C 16.102 133.200,15.999 133.553,16.118 134.007 C 16.234 134.451,16.075 135.068,15.764 135.378 C 15.454 135.689,15.200 136.406,15.200 136.971 C 15.200 137.537,15.020 138.000,14.800 138.000 C 14.580 138.000,14.400 138.540,14.400 139.200 C 14.400 139.860,14.220 140.400,14.000 140.400 C 13.780 140.400,13.600 140.839,13.600 141.376 C 13.600 141.913,13.420 142.464,13.200 142.600 C 12.980 142.736,12.800 143.276,12.800 143.800 C 12.800 144.324,12.659 144.840,12.487 144.946 C 12.315 145.052,12.130 145.731,12.075 146.454 C 12.020 147.177,11.774 147.892,11.530 148.043 C 11.285 148.194,11.190 148.720,11.319 149.211 C 11.456 149.738,11.316 150.341,10.976 150.681 C 10.659 150.998,10.400 151.964,10.400 152.829 C 10.400 153.693,10.220 154.400,10.000 154.400 C 9.780 154.400,9.600 155.042,9.600 155.826 C 9.600 156.611,9.414 157.599,9.188 158.023 C 8.961 158.447,8.664 160.235,8.528 161.997 C 8.393 163.758,8.128 165.200,7.941 165.200 C 7.753 165.200,7.600 166.280,7.600 167.600 C 7.600 168.920,7.434 170.000,7.232 170.000 C 6.881 170.000,6.665 171.943,6.166 179.600 C 6.044 181.470,5.776 183.171,5.572 183.380 C 5.049 183.914,5.077 216.400,5.600 216.400 C 5.838 216.400,6.000 217.925,6.000 220.176 C 6.000 222.263,6.179 224.063,6.400 224.200 C 6.620 224.336,6.800 225.697,6.800 227.224 C 6.800 228.808,6.972 230.000,7.200 230.000 C 7.422 230.000,7.600 231.067,7.600 232.400 C 7.600 233.720,7.753 234.800,7.941 234.800 C 8.128 234.800,8.393 236.242,8.528 238.003 C 8.664 239.765,8.961 241.553,9.188 241.977 C 9.414 242.401,9.600 243.389,9.600 244.174 C 9.600 244.958,9.780 245.600,10.000 245.600 C 10.220 245.600,10.400 246.307,10.400 247.171 C 10.400 248.036,10.651 248.994,10.958 249.301 C 11.288 249.630,11.432 250.297,11.311 250.929 C 11.194 251.544,11.287 252.000,11.529 252.000 C 11.762 252.000,12.008 252.675,12.076 253.500 C 12.144 254.325,12.392 254.966,12.627 254.924 C 12.878 254.880,12.986 255.315,12.889 255.977 C 12.798 256.598,12.920 257.227,13.162 257.376 C 13.403 257.525,13.600 258.087,13.600 258.624 C 13.600 259.161,13.780 259.600,14.000 259.600 C 14.220 259.600,14.400 260.140,14.400 260.800 C 14.400 261.460,14.580 262.000,14.800 262.000 C 15.020 262.000,15.200 262.540,15.200 263.200 C 15.200 263.860,15.380 264.400,15.600 264.400 C 15.820 264.400,16.000 264.940,16.000 265.600 C 16.000 266.260,16.180 266.800,16.400 266.800 C 16.620 266.800,16.800 267.340,16.800 268.000 C 16.800 268.660,16.980 269.200,17.200 269.200 C 17.420 269.200,17.600 269.560,17.600 270.000 C 17.600 270.440,17.780 270.800,18.000 270.800 C 18.220 270.800,18.400 271.162,18.400 271.605 C 18.400 272.048,18.580 272.768,18.800 273.205 C 19.020 273.642,19.380 274.358,19.600 274.795 C 19.820 275.232,20.000 275.862,20.000 276.195 C 20.000 276.528,20.180 276.800,20.400 276.800 C 20.620 276.800,20.800 277.160,20.800 277.600 C 20.800 278.040,20.980 278.400,21.200 278.400 C 21.420 278.400,21.600 278.760,21.600 279.200 C 21.600 279.640,21.780 280.000,22.000 280.000 C 22.220 280.000,22.400 280.439,22.400 280.976 C 22.400 281.513,22.580 282.064,22.800 282.200 C 23.020 282.336,23.200 282.797,23.200 283.224 C 23.200 283.651,23.380 284.000,23.600 284.000 C 23.820 284.000,24.000 284.360,24.000 284.800 C 24.000 285.240,24.180 285.600,24.400 285.600 C 24.620 285.600,24.800 285.960,24.800 286.400 C 24.800 286.840,25.010 287.200,25.267 287.200 C 25.523 287.200,25.625 287.308,25.493 287.440 C 25.185 287.749,27.984 293.200,28.450 293.200 C 28.642 293.200,28.781 293.335,28.757 293.500 C 28.670 294.104,29.303 295.600,29.647 295.600 C 29.841 295.600,30.000 295.960,30.000 296.400 C 30.000 296.840,30.180 297.200,30.400 297.200 C 30.620 297.200,30.800 297.436,30.800 297.725 C 30.800 298.013,31.160 298.636,31.600 299.108 C 32.040 299.580,32.400 300.244,32.400 300.583 C 32.400 300.922,32.580 301.200,32.800 301.200 C 33.020 301.200,33.200 301.520,33.200 301.912 C 33.200 302.303,33.560 302.883,34.000 303.200 C 34.440 303.517,34.800 304.031,34.800 304.341 C 34.800 304.652,35.116 305.197,35.503 305.553 C 35.889 305.909,36.474 306.737,36.803 307.393 C 37.131 308.049,37.895 309.111,38.500 309.752 C 39.105 310.394,39.600 311.119,39.600 311.363 C 39.600 311.608,39.960 312.032,40.400 312.307 C 40.840 312.582,41.200 313.100,41.200 313.458 C 41.200 313.815,41.611 314.489,42.113 314.954 C 43.021 315.796,43.200 316.090,43.200 316.741 C 43.200 316.928,43.740 317.646,44.400 318.337 C 45.060 319.028,45.600 319.753,45.600 319.948 C 45.600 320.144,46.320 321.045,47.200 321.952 C 48.080 322.859,48.800 323.702,48.800 323.826 C 48.800 323.950,49.700 324.929,50.800 326.000 C 51.900 327.071,52.800 328.121,52.800 328.333 C 52.800 328.545,54.150 330.099,55.800 331.787 C 57.450 333.475,58.800 335.023,58.800 335.228 C 58.800 335.433,59.070 335.600,59.400 335.600 C 59.730 335.600,60.000 335.786,60.000 336.014 C 60.000 336.241,61.178 337.546,62.618 338.914 C 64.058 340.281,66.596 342.705,68.259 344.300 C 69.922 345.895,71.455 347.200,71.667 347.200 C 71.879 347.200,72.929 348.100,74.000 349.200 C 75.071 350.300,76.050 351.200,76.174 351.200 C 76.298 351.200,77.141 351.920,78.048 352.800 C 78.955 353.680,79.856 354.400,80.052 354.400 C 80.247 354.400,80.972 354.940,81.663 355.600 C 82.354 356.260,83.080 356.800,83.277 356.800 C 83.474 356.800,84.120 357.250,84.713 357.800 C 85.307 358.350,86.069 358.800,86.408 358.800 C 86.746 358.800,87.283 359.160,87.600 359.600 C 87.917 360.040,88.380 360.400,88.629 360.400 C 88.878 360.400,89.654 360.947,90.353 361.616 C 91.053 362.284,91.781 362.735,91.971 362.618 C 92.161 362.501,92.419 362.674,92.546 363.002 C 92.672 363.331,93.011 363.600,93.299 363.600 C 93.587 363.600,94.083 363.960,94.400 364.400 C 94.717 364.840,95.257 365.200,95.600 365.200 C 95.943 365.200,96.483 365.560,96.800 366.000 C 97.117 366.440,97.697 366.800,98.088 366.800 C 98.480 366.800,98.800 366.980,98.800 367.200 C 98.800 367.420,99.244 367.600,99.786 367.600 C 100.362 367.600,100.950 367.932,101.200 368.400 C 101.435 368.840,101.892 369.200,102.214 369.200 C 102.536 369.200,102.800 369.380,102.800 369.600 C 102.800 369.820,103.160 370.000,103.600 370.000 C 104.040 370.000,104.401 370.135,104.403 370.300 C 104.405 370.465,104.810 370.798,105.303 371.041 C 105.796 371.283,107.763 372.318,109.674 373.341 C 111.585 374.363,113.430 375.200,113.774 375.200 C 114.118 375.200,114.400 375.380,114.400 375.600 C 114.400 375.820,114.760 376.000,115.200 376.000 C 115.640 376.000,116.000 376.180,116.000 376.400 C 116.000 376.620,116.349 376.800,116.776 376.800 C 117.203 376.800,117.664 376.980,117.800 377.200 C 117.936 377.420,118.487 377.600,119.024 377.600 C 119.561 377.600,120.000 377.780,120.000 378.000 C 120.000 378.220,120.360 378.400,120.800 378.400 C 121.240 378.400,121.600 378.580,121.600 378.800 C 121.600 379.020,121.960 379.200,122.400 379.200 C 122.840 379.200,123.200 379.380,123.200 379.600 C 123.200 379.820,123.650 380.000,124.200 380.000 C 124.750 380.000,125.200 380.180,125.200 380.400 C 125.200 380.620,125.549 380.800,125.976 380.800 C 126.403 380.800,126.864 380.980,127.000 381.200 C 127.136 381.420,127.687 381.600,128.224 381.600 C 128.761 381.600,129.200 381.780,129.200 382.000 C 129.200 382.220,129.560 382.400,130.000 382.400 C 130.440 382.400,130.800 382.580,130.800 382.800 C 130.800 383.020,131.340 383.200,132.000 383.200 C 132.660 383.200,133.200 383.380,133.200 383.600 C 133.200 383.820,133.740 384.000,134.400 384.000 C 135.060 384.000,135.600 384.180,135.600 384.400 C 135.600 384.620,136.140 384.800,136.800 384.800 C 137.460 384.800,138.000 384.980,138.000 385.200 C 138.000 385.420,138.540 385.600,139.200 385.600 C 139.860 385.600,140.400 385.780,140.400 386.000 C 140.400 386.220,140.839 386.400,141.376 386.400 C 141.913 386.400,142.475 386.597,142.624 386.838 C 142.773 387.080,143.407 387.202,144.032 387.110 C 144.736 387.007,145.247 387.145,145.372 387.472 C 145.484 387.762,146.121 388.000,146.787 388.000 C 147.454 388.000,148.000 388.160,148.000 388.356 C 148.000 388.706,149.337 389.020,152.700 389.459 C 153.635 389.581,154.400 389.842,154.400 390.040 C 154.400 390.238,155.042 390.400,155.826 390.400 C 156.611 390.400,157.577 390.574,157.974 390.786 C 158.371 390.999,160.160 391.295,161.948 391.444 C 163.737 391.593,165.200 391.869,165.200 392.058 C 165.200 392.246,166.280 392.400,167.600 392.400 C 168.933 392.400,170.000 392.578,170.000 392.800 C 170.000 393.031,171.259 393.200,172.976 393.200 C 174.613 393.200,176.064 393.380,176.200 393.600 C 176.337 393.821,178.137 394.000,180.224 394.000 C 182.475 394.000,184.000 394.162,184.000 394.400 C 184.000 394.660,189.600 394.800,200.000 394.800 C 210.400 394.800,216.000 394.660,216.000 394.400 C 216.000 394.162,217.525 394.000,219.776 394.000 C 221.863 394.000,223.663 393.821,223.800 393.600 C 223.936 393.380,225.387 393.200,227.024 393.200 C 228.741 393.200,230.000 393.031,230.000 392.800 C 230.000 392.578,231.067 392.400,232.400 392.400 C 233.720 392.400,234.800 392.243,234.800 392.052 C 234.800 391.860,236.418 391.577,238.395 391.422 C 240.372 391.267,242.092 390.974,242.218 390.770 C 242.344 390.567,243.157 390.400,244.024 390.400 C 244.891 390.400,245.600 390.238,245.600 390.040 C 245.600 389.842,246.365 389.581,247.300 389.459 C 250.663 389.020,252.000 388.706,252.000 388.356 C 252.000 388.160,252.529 388.000,253.176 388.000 C 253.823 388.000,254.464 387.820,254.600 387.600 C 254.736 387.380,255.366 387.200,256.000 387.200 C 256.634 387.200,257.264 387.020,257.400 386.800 C 257.536 386.580,258.087 386.400,258.624 386.400 C 259.161 386.400,259.600 386.220,259.600 386.000 C 259.600 385.780,260.140 385.600,260.800 385.600 C 261.460 385.600,262.000 385.420,262.000 385.200 C 262.000 384.980,262.540 384.800,263.200 384.800 C 263.860 384.800,264.400 384.620,264.400 384.400 C 264.400 384.180,264.940 384.000,265.600 384.000 C 266.260 384.000,266.800 383.820,266.800 383.600 C 266.800 383.380,267.340 383.200,268.000 383.200 C 268.660 383.200,269.200 383.020,269.200 382.800 C 269.200 382.580,269.560 382.400,270.000 382.400 C 270.440 382.400,270.800 382.220,270.800 382.000 C 270.800 381.780,271.239 381.600,271.776 381.600 C 272.313 381.600,272.864 381.420,273.000 381.200 C 273.136 380.980,273.597 380.800,274.024 380.800 C 274.451 380.800,274.800 380.620,274.800 380.400 C 274.800 380.180,275.250 380.000,275.800 380.000 C 276.350 380.000,276.800 379.820,276.800 379.600 C 276.800 379.380,277.160 379.200,277.600 379.200 C 278.040 379.200,278.400 379.020,278.400 378.800 C 278.400 378.580,278.745 378.400,279.167 378.400 C 279.588 378.400,279.993 378.225,280.067 378.012 C 280.140 377.798,280.600 377.563,281.090 377.489 C 281.579 377.415,282.104 377.229,282.256 377.077 C 282.409 376.925,282.863 376.800,283.267 376.800 C 283.670 376.800,284.000 376.620,284.000 376.400 C 284.000 376.180,284.360 376.000,284.800 376.000 C 285.240 376.000,285.600 375.820,285.600 375.600 C 285.600 375.380,285.849 375.200,286.152 375.200 C 286.938 375.200,294.000 371.545,294.000 371.138 C 294.000 370.952,294.360 370.800,294.800 370.800 C 295.240 370.800,295.600 370.620,295.600 370.400 C 295.600 370.180,295.960 370.000,296.400 370.000 C 296.840 370.000,297.200 369.820,297.200 369.600 C 297.200 369.380,297.436 369.200,297.725 369.200 C 298.013 369.200,298.636 368.840,299.108 368.400 C 299.580 367.960,300.244 367.600,300.583 367.600 C 300.922 367.600,301.200 367.464,301.200 367.298 C 301.200 367.131,301.752 366.751,302.426 366.453 C 303.129 366.142,303.568 365.693,303.456 365.400 C 303.324 365.059,303.517 364.958,304.040 365.095 C 304.504 365.216,305.101 364.993,305.510 364.547 C 305.890 364.133,306.707 363.534,307.326 363.216 C 307.945 362.898,308.979 362.134,309.622 361.519 C 310.266 360.903,311.021 360.400,311.300 360.400 C 311.579 360.400,312.032 360.040,312.307 359.600 C 312.582 359.160,313.122 358.800,313.507 358.800 C 313.893 358.800,314.693 358.350,315.287 357.800 C 315.880 357.250,316.526 356.800,316.723 356.800 C 316.920 356.800,317.646 356.260,318.337 355.600 C 319.028 354.940,319.730 354.400,319.899 354.400 C 320.067 354.400,320.969 353.680,321.903 352.800 C 322.837 351.920,323.703 351.200,323.827 351.200 C 323.951 351.200,324.929 350.300,326.000 349.200 C 327.071 348.100,328.120 347.200,328.331 347.200 C 329.188 347.200,346.400 330.094,346.400 329.242 C 346.400 329.037,347.480 327.773,348.800 326.432 C 350.120 325.092,351.200 323.906,351.200 323.798 C 351.200 323.690,351.920 322.837,352.800 321.903 C 353.680 320.969,354.400 320.067,354.400 319.899 C 354.400 319.730,354.940 319.028,355.600 318.337 C 356.260 317.646,356.800 316.920,356.800 316.723 C 356.800 316.526,357.250 315.880,357.800 315.287 C 358.350 314.693,358.800 313.893,358.800 313.507 C 358.800 313.122,359.160 312.582,359.600 312.307 C 360.040 312.032,360.400 311.579,360.400 311.300 C 360.400 311.021,360.903 310.266,361.519 309.622 C 362.134 308.979,362.898 307.945,363.216 307.326 C 363.534 306.707,364.133 305.890,364.547 305.510 C 364.993 305.101,365.216 304.504,365.095 304.040 C 364.958 303.517,365.059 303.324,365.400 303.456 C 365.693 303.568,366.142 303.129,366.453 302.426 C 366.751 301.752,367.131 301.200,367.298 301.200 C 367.464 301.200,367.600 300.922,367.600 300.583 C 367.600 300.244,367.960 299.580,368.400 299.108 C 368.840 298.636,369.200 298.013,369.200 297.725 C 369.200 297.436,369.380 297.200,369.600 297.200 C 369.820 297.200,370.000 296.840,370.000 296.400 C 370.000 295.960,370.180 295.600,370.400 295.600 C 370.620 295.600,370.800 295.240,370.800 294.800 C 370.800 294.360,370.952 294.000,371.138 294.000 C 371.545 294.000,375.200 286.938,375.200 286.152 C 375.200 285.849,375.380 285.600,375.600 285.600 C 375.820 285.600,376.000 285.240,376.000 284.800 C 376.000 284.360,376.180 284.000,376.400 284.000 C 376.620 284.000,376.800 283.670,376.800 283.267 C 376.800 282.863,376.925 282.409,377.077 282.256 C 377.229 282.104,377.415 281.579,377.489 281.090 C 377.563 280.600,377.798 280.140,378.012 280.067 C 378.225 279.993,378.400 279.588,378.400 279.167 C 378.400 278.745,378.580 278.400,378.800 278.400 C 379.020 278.400,379.200 278.040,379.200 277.600 C 379.200 277.160,379.380 276.800,379.600 276.800 C 379.820 276.800,380.000 276.350,380.000 275.800 C 380.000 275.250,380.180 274.800,380.400 274.800 C 380.620 274.800,380.800 274.451,380.800 274.024 C 380.800 273.597,380.980 273.136,381.200 273.000 C 381.420 272.864,381.600 272.313,381.600 271.776 C 381.600 271.239,381.780 270.800,382.000 270.800 C 382.220 270.800,382.400 270.440,382.400 270.000 C 382.400 269.560,382.580 269.200,382.800 269.200 C 383.020 269.200,383.200 268.660,383.200 268.000 C 383.200 267.340,383.380 266.800,383.600 266.800 C 383.820 266.800,384.000 266.260,384.000 265.600 C 384.000 264.940,384.180 264.400,384.400 264.400 C 384.620 264.400,384.800 263.860,384.800 263.200 C 384.800 262.540,384.980 262.000,385.200 262.000 C 385.420 262.000,385.600 261.460,385.600 260.800 C 385.600 260.140,385.780 259.600,386.000 259.600 C 386.220 259.600,386.400 259.161,386.400 258.624 C 386.400 258.087,386.580 257.536,386.800 257.400 C 387.020 257.264,387.200 256.634,387.200 256.000 C 387.200 255.366,387.380 254.736,387.600 254.600 C 387.820 254.464,388.000 253.823,388.000 253.176 C 388.000 252.529,388.160 252.000,388.356 252.000 C 388.706 252.000,389.020 250.663,389.459 247.300 C 389.581 246.365,389.842 245.600,390.040 245.600 C 390.238 245.600,390.400 244.891,390.400 244.024 C 390.400 243.157,390.567 242.344,390.770 242.218 C 390.974 242.092,391.267 240.372,391.422 238.395 C 391.577 236.418,391.860 234.800,392.052 234.800 C 392.243 234.800,392.400 233.720,392.400 232.400 C 392.400 231.067,392.578 230.000,392.800 230.000 C 393.031 230.000,393.200 228.741,393.200 227.024 C 393.200 225.387,393.380 223.936,393.600 223.800 C 393.821 223.663,394.000 221.863,394.000 219.776 C 394.000 217.525,394.162 216.000,394.400 216.000 C 394.660 216.000,394.800 210.400,394.800 200.000 C 394.800 189.600,394.660 184.000,394.400 184.000 C 394.162 184.000,394.000 182.475,394.000 180.224 C 394.000 178.137,393.821 176.337,393.600 176.200 C 393.380 176.064,393.200 174.613,393.200 172.976 C 393.200 171.259,393.031 170.000,392.800 170.000 C 392.578 170.000,392.400 168.933,392.400 167.600 C 392.400 166.280,392.246 165.200,392.058 165.200 C 391.869 165.200,391.593 163.737,391.444 161.948 C 391.295 160.160,390.999 158.371,390.786 157.974 C 390.574 157.577,390.400 156.611,390.400 155.826 C 390.400 155.042,390.238 154.400,390.040 154.400 C 389.842 154.400,389.581 153.635,389.459 152.700 C 389.020 149.337,388.706 148.000,388.356 148.000 C 388.160 148.000,388.000 147.454,388.000 146.787 C 388.000 146.121,387.762 145.484,387.472 145.372 C 387.145 145.247,387.007 144.736,387.110 144.032 C 387.202 143.407,387.080 142.773,386.838 142.624 C 386.597 142.475,386.400 141.913,386.400 141.376 C 386.400 140.839,386.220 140.400,386.000 140.400 C 385.780 140.400,385.600 139.860,385.600 139.200 C 385.600 138.540,385.420 138.000,385.200 138.000 C 384.980 138.000,384.800 137.460,384.800 136.800 C 384.800 136.140,384.620 135.600,384.400 135.600 C 384.180 135.600,384.000 135.060,384.000 134.400 C 384.000 133.740,383.820 133.200,383.600 133.200 C 383.380 133.200,383.200 132.660,383.200 132.000 C 383.200 131.340,383.020 130.800,382.800 130.800 C 382.580 130.800,382.400 130.440,382.400 130.000 C 382.400 129.560,382.220 129.200,382.000 129.200 C 381.780 129.200,381.600 128.761,381.600 128.224 C 381.600 127.687,381.420 127.136,381.200 127.000 C 380.980 126.864,380.800 126.403,380.800 125.976 C 380.800 125.549,380.620 125.200,380.400 125.200 C 380.180 125.200,380.000 124.750,380.000 124.200 C 380.000 123.650,379.820 123.200,379.600 123.200 C 379.380 123.200,379.200 122.840,379.200 122.400 C 379.200 121.960,379.020 121.600,378.800 121.600 C 378.580 121.600,378.400 121.240,378.400 120.800 C 378.400 120.360,378.220 120.000,378.000 120.000 C 377.780 120.000,377.600 119.561,377.600 119.024 C 377.600 118.487,377.420 117.936,377.200 117.800 C 376.980 117.664,376.800 117.203,376.800 116.776 C 376.800 116.349,376.620 116.000,376.400 116.000 C 376.180 116.000,376.000 115.640,376.000 115.200 C 376.000 114.760,375.820 114.400,375.600 114.400 C 375.380 114.400,375.200 114.118,375.200 113.774 C 375.200 113.430,374.363 111.585,373.341 109.674 C 372.318 107.763,371.283 105.796,371.041 105.303 C 370.798 104.810,370.465 104.405,370.300 104.403 C 370.135 104.401,370.000 104.040,370.000 103.600 C 370.000 103.160,369.820 102.800,369.600 102.800 C 369.380 102.800,369.200 102.536,369.200 102.214 C 369.200 101.892,368.840 101.435,368.400 101.200 C 367.932 100.950,367.600 100.362,367.600 99.786 C 367.600 99.244,367.420 98.800,367.200 98.800 C 366.980 98.800,366.800 98.480,366.800 98.088 C 366.800 97.697,366.440 97.117,366.000 96.800 C 365.560 96.483,365.200 95.943,365.200 95.600 C 365.200 95.257,364.840 94.717,364.400 94.400 C 363.960 94.083,363.600 93.587,363.600 93.299 C 363.600 93.011,363.331 92.672,363.002 92.546 C 362.674 92.419,362.501 92.161,362.618 91.971 C 362.735 91.781,362.284 91.053,361.616 90.353 C 360.947 89.654,360.400 88.878,360.400 88.629 C 360.400 88.380,360.040 87.917,359.600 87.600 C 359.160 87.283,358.800 86.746,358.800 86.408 C 358.800 86.069,358.350 85.307,357.800 84.713 C 357.250 84.120,356.800 83.474,356.800 83.277 C 356.800 83.080,356.260 82.354,355.600 81.663 C 354.940 80.972,354.400 80.247,354.400 80.052 C 354.400 79.856,353.680 78.955,352.800 78.048 C 351.920 77.141,351.200 76.298,351.200 76.174 C 351.200 76.050,350.300 75.071,349.200 74.000 C 348.100 72.929,347.200 71.879,347.200 71.667 C 347.200 71.455,345.895 69.922,344.300 68.259 C 342.705 66.596,340.281 64.058,338.914 62.618 C 337.546 61.178,336.241 60.000,336.014 60.000 C 335.786 60.000,335.600 59.730,335.600 59.400 C 335.600 59.070,335.433 58.800,335.228 58.800 C 335.023 58.800,333.475 57.450,331.787 55.800 C 330.099 54.150,328.545 52.800,328.333 52.800 C 328.121 52.800,327.071 51.900,326.000 50.800 C 324.929 49.700,323.950 48.800,323.826 48.800 C 323.702 48.800,322.859 48.080,321.952 47.200 C 321.045 46.320,320.144 45.600,319.948 45.600 C 319.753 45.600,319.028 45.060,318.337 44.400 C 317.202 43.315,316.636 43.013,316.274 43.300 C 316.204 43.355,315.688 42.905,315.128 42.300 C 314.567 41.695,313.815 41.200,313.458 41.200 C 313.100 41.200,312.582 40.840,312.307 40.400 C 312.032 39.960,311.608 39.600,311.363 39.600 C 311.119 39.600,310.394 39.105,309.752 38.500 C 309.111 37.895,308.049 37.131,307.393 36.803 C 306.737 36.474,305.909 35.889,305.553 35.503 C 305.197 35.116,304.652 34.800,304.341 34.800 C 304.031 34.800,303.517 34.440,303.200 34.000 C 302.883 33.560,302.303 33.200,301.912 33.200 C 301.520 33.200,301.200 33.020,301.200 32.800 C 301.200 32.580,300.922 32.400,300.583 32.400 C 300.244 32.400,299.580 32.040,299.108 31.600 C 298.636 31.160,298.013 30.800,297.725 30.800 C 297.436 30.800,297.200 30.620,297.200 30.400 C 297.200 30.180,296.840 30.000,296.400 30.000 C 295.960 30.000,295.600 29.841,295.600 29.647 C 295.600 29.303,294.104 28.670,293.500 28.757 C 293.335 28.781,293.200 28.642,293.200 28.450 C 293.200 27.984,287.749 25.185,287.440 25.493 C 287.308 25.625,287.200 25.523,287.200 25.267 C 287.200 25.010,286.840 24.800,286.400 24.800 C 285.960 24.800,285.600 24.620,285.600 24.400 C 285.600 24.180,285.240 24.000,284.800 24.000 C 284.360 24.000,284.000 23.820,284.000 23.600 C 284.000 23.380,283.651 23.200,283.224 23.200 C 282.797 23.200,282.336 23.020,282.200 22.800 C 282.064 22.580,281.513 22.400,280.976 22.400 C 280.439 22.400,280.000 22.220,280.000 22.000 C 280.000 21.780,279.640 21.600,279.200 21.600 C 278.760 21.600,278.400 21.420,278.400 21.200 C 278.400 20.980,278.040 20.800,277.600 20.800 C 277.160 20.800,276.800 20.620,276.800 20.400 C 276.800 20.180,276.528 20.000,276.195 20.000 C 275.862 20.000,275.232 19.820,274.795 19.600 C 274.358 19.380,273.642 19.020,273.205 18.800 C 272.768 18.580,272.048 18.400,271.605 18.400 C 271.162 18.400,270.800 18.220,270.800 18.000 C 270.800 17.780,270.440 17.600,270.000 17.600 C 269.560 17.600,269.200 17.420,269.200 17.200 C 269.200 16.980,268.660 16.800,268.000 16.800 C 267.340 16.800,266.800 16.620,266.800 16.400 C 266.800 16.180,266.260 16.000,265.600 16.000 C 264.940 16.000,264.400 15.820,264.400 15.600 C 264.400 15.380,263.860 15.200,263.200 15.200 C 262.540 15.200,262.000 15.020,262.000 14.800 C 262.000 14.580,261.460 14.400,260.800 14.400 C 260.140 14.400,259.600 14.220,259.600 14.000 C 259.600 13.780,259.161 13.600,258.624 13.600 C 258.087 13.600,257.536 13.420,257.400 13.200 C 257.264 12.980,256.724 12.800,256.200 12.800 C 255.676 12.800,255.136 12.620,255.000 12.400 C 254.864 12.180,254.133 12.000,253.376 12.000 C 252.619 12.000,252.000 11.799,252.000 11.553 C 252.000 11.285,251.573 11.188,250.929 11.311 C 250.297 11.432,249.630 11.288,249.301 10.958 C 248.994 10.651,248.036 10.400,247.171 10.400 C 246.307 10.400,245.600 10.220,245.600 10.000 C 245.600 9.780,244.958 9.600,244.174 9.600 C 243.389 9.600,242.401 9.414,241.977 9.188 C 241.553 8.961,239.765 8.664,238.003 8.528 C 236.242 8.393,234.800 8.128,234.800 7.941 C 234.800 7.753,233.720 7.600,232.400 7.600 C 231.067 7.600,230.000 7.422,230.000 7.200 C 230.000 6.972,228.808 6.800,227.224 6.800 C 225.697 6.800,224.336 6.620,224.200 6.400 C 224.063 6.179,222.263 6.000,220.176 6.000 C 217.925 6.000,216.400 5.838,216.400 5.600 C 216.400 5.340,210.667 5.200,200.000 5.200 C 190.139 5.200,183.600 5.349,183.600 5.573 M130.000 89.401 C 130.990 89.535,132.160 89.788,132.600 89.963 C 134.245 90.616,136.229 91.288,137.100 91.487 C 137.595 91.601,138.000 91.852,138.000 92.047 C 138.000 92.241,138.270 92.400,138.600 92.400 C 138.929 92.400,139.939 93.118,140.844 93.996 C 141.749 94.874,142.647 95.495,142.840 95.375 C 143.033 95.256,143.101 95.393,142.991 95.679 C 142.881 95.966,143.244 96.687,143.796 97.283 C 144.348 97.878,144.800 98.544,144.800 98.763 C 144.800 98.981,145.086 99.320,145.436 99.516 C 145.786 99.712,146.078 100.036,146.087 100.236 C 146.110 100.788,146.416 101.721,146.829 102.495 C 147.033 102.877,147.200 103.557,147.200 104.007 C 147.200 104.457,147.425 104.911,147.700 105.017 C 148.063 105.156,148.200 106.577,148.200 110.204 C 148.200 113.934,148.073 115.200,147.700 115.200 C 147.411 115.200,147.200 115.707,147.200 116.400 C 147.200 117.060,147.020 117.600,146.800 117.600 C 146.580 117.600,146.400 117.834,146.400 118.120 C 146.400 118.856,145.459 120.793,145.100 120.797 C 144.935 120.799,144.800 121.033,144.800 121.317 C 144.800 121.601,143.991 122.726,143.002 123.817 C 142.013 124.908,141.203 125.915,141.202 126.057 C 141.201 126.198,140.707 126.437,140.104 126.588 C 139.501 126.740,138.916 126.984,138.804 127.132 C 138.455 127.591,135.154 129.200,134.562 129.200 C 134.253 129.200,134.000 129.380,134.000 129.600 C 134.000 129.820,133.280 130.000,132.400 130.000 C 131.520 130.000,130.800 130.180,130.800 130.400 C 130.800 130.647,128.741 130.800,125.424 130.800 C 122.271 130.800,119.945 130.635,119.800 130.400 C 119.664 130.180,118.933 130.000,118.176 130.000 C 117.419 130.000,116.800 129.820,116.800 129.600 C 116.800 129.380,116.440 129.200,116.000 129.200 C 115.560 129.200,115.200 129.009,115.200 128.776 C 115.200 128.543,115.035 128.455,114.832 128.580 C 114.630 128.705,114.193 128.536,113.861 128.204 C 113.529 127.872,112.974 127.600,112.629 127.600 C 112.283 127.600,112.000 127.432,112.000 127.227 C 112.000 127.022,111.632 126.737,111.183 126.595 C 110.091 126.248,107.361 123.539,107.019 122.461 C 106.869 121.988,106.478 121.600,106.149 121.600 C 105.821 121.600,105.655 121.435,105.780 121.232 C 105.905 121.030,105.768 120.625,105.475 120.332 C 104.892 119.749,104.888 119.738,104.540 118.002 C 104.408 117.341,104.142 116.800,103.950 116.800 C 103.758 116.800,103.600 116.282,103.600 115.649 C 103.600 115.016,103.330 114.274,103.000 114.000 C 102.546 113.623,102.400 112.602,102.400 109.794 C 102.400 106.867,102.526 106.037,103.000 105.855 C 103.347 105.722,103.600 105.124,103.600 104.436 C 103.600 103.782,103.780 103.136,104.000 103.000 C 104.220 102.864,104.400 102.403,104.400 101.976 C 104.400 101.549,104.580 101.200,104.800 101.200 C 105.020 101.200,105.200 100.840,105.200 100.400 C 105.200 99.960,105.368 99.600,105.573 99.600 C 105.778 99.600,106.057 99.249,106.194 98.820 C 106.330 98.392,106.927 97.498,107.520 96.835 C 108.114 96.171,109.050 95.087,109.600 94.426 C 110.150 93.765,110.875 93.219,111.212 93.212 C 111.548 93.205,112.075 92.850,112.383 92.423 C 112.691 91.996,113.630 91.530,114.470 91.388 C 115.309 91.246,116.097 90.966,116.222 90.765 C 116.346 90.564,116.892 90.400,117.436 90.400 C 117.980 90.400,118.512 90.174,118.618 89.898 C 118.746 89.564,119.427 89.444,120.642 89.541 C 121.705 89.625,122.668 89.489,122.937 89.217 C 123.390 88.757,125.716 88.818,130.000 89.401 M258.400 147.500 C 258.400 147.825,259.022 148.000,260.176 148.000 C 261.153 148.000,262.064 148.180,262.200 148.400 C 262.336 148.620,263.067 148.800,263.824 148.800 C 264.581 148.800,265.200 148.980,265.200 149.200 C 265.200 149.420,265.740 149.600,266.400 149.600 C 267.060 149.600,267.600 149.780,267.600 150.000 C 267.600 150.220,267.960 150.400,268.400 150.400 C 268.840 150.400,269.200 150.580,269.200 150.800 C 269.200 151.020,269.453 151.200,269.762 151.200 C 270.428 151.200,273.741 152.868,273.933 153.300 C 274.007 153.465,274.329 153.600,274.650 153.600 C 275.225 153.600,275.703 153.915,277.229 155.300 C 277.653 155.685,278.000 155.918,278.000 155.818 C 278.000 155.718,278.415 156.033,278.923 156.518 C 279.431 157.003,280.276 157.670,280.800 158.000 C 281.324 158.330,282.158 158.986,282.653 159.458 C 283.147 159.929,283.652 160.214,283.776 160.091 C 283.899 159.968,284.000 160.235,284.000 160.685 C 284.000 161.135,284.720 162.245,285.600 163.152 C 286.480 164.059,287.200 165.031,287.200 165.312 C 287.200 165.593,287.560 166.083,288.000 166.400 C 288.440 166.717,288.800 167.297,288.800 167.688 C 288.800 168.080,288.980 168.400,289.200 168.400 C 289.420 168.400,289.600 168.760,289.600 169.200 C 289.600 169.640,289.780 170.000,290.000 170.000 C 290.220 170.000,290.400 170.270,290.400 170.600 C 290.400 170.930,290.580 171.200,290.800 171.200 C 291.020 171.200,291.200 171.560,291.200 172.000 C 291.200 172.440,291.410 172.800,291.667 172.800 C 291.923 172.800,292.013 172.921,291.865 173.068 C 291.718 173.216,291.882 173.771,292.231 174.303 C 292.579 174.834,292.759 175.374,292.631 175.502 C 292.503 175.630,292.690 176.058,293.048 176.453 C 293.405 176.847,293.591 177.447,293.461 177.785 C 293.324 178.143,293.441 178.400,293.743 178.400 C 294.055 178.400,294.270 178.916,294.284 179.700 C 294.298 180.415,294.524 181.810,294.787 182.800 C 295.050 183.790,295.359 185.320,295.474 186.200 C 295.588 187.080,295.844 187.971,296.041 188.180 C 296.238 188.389,296.400 189.784,296.400 191.280 C 296.400 192.827,296.573 194.000,296.800 194.000 C 297.064 194.000,297.200 207.733,297.200 234.400 L 297.200 274.800 277.000 274.800 L 256.800 274.800 256.800 237.249 C 256.800 203.451,256.737 199.645,256.166 199.171 C 255.726 198.807,255.604 198.280,255.768 197.458 C 255.991 196.346,255.550 194.288,254.751 192.705 C 254.558 192.323,254.400 191.648,254.400 191.205 C 254.400 190.762,254.147 190.400,253.837 190.400 C 253.472 190.400,253.348 190.120,253.484 189.600 C 253.601 189.153,253.496 188.800,253.247 188.800 C 253.001 188.800,252.800 188.522,252.800 188.182 C 252.800 187.556,251.018 185.515,250.726 185.807 C 250.639 185.894,250.541 185.612,250.508 185.179 C 250.446 184.346,249.507 183.200,248.888 183.200 C 248.685 183.200,247.954 182.660,247.263 182.000 C 246.572 181.340,245.736 180.800,245.404 180.800 C 245.072 180.800,244.800 180.620,244.800 180.400 C 244.800 180.180,244.260 180.000,243.600 180.000 C 242.940 180.000,242.400 179.820,242.400 179.600 C 242.400 179.380,241.781 179.200,241.024 179.200 C 240.267 179.200,239.536 179.020,239.400 178.800 C 239.260 178.573,237.270 178.400,234.800 178.400 C 232.330 178.400,230.340 178.573,230.200 178.800 C 230.064 179.020,229.344 179.200,228.600 179.200 C 227.856 179.200,227.136 179.380,227.000 179.600 C 226.864 179.820,226.313 180.000,225.776 180.000 C 225.239 180.000,224.800 180.180,224.800 180.400 C 224.800 180.620,224.483 180.800,224.096 180.800 C 223.709 180.800,223.168 181.160,222.893 181.600 C 222.618 182.040,222.119 182.400,221.783 182.400 C 221.066 182.400,218.342 185.009,218.693 185.360 C 218.825 185.492,218.717 185.600,218.453 185.600 C 217.758 185.600,215.200 188.263,215.200 188.987 C 215.200 189.324,215.042 189.600,214.849 189.600 C 214.655 189.600,214.273 190.140,214.000 190.800 C 213.727 191.460,213.383 192.000,213.237 192.000 C 213.090 192.000,212.940 192.402,212.903 192.894 C 212.866 193.386,212.648 193.851,212.418 193.927 C 212.188 194.004,212.000 194.562,212.000 195.167 C 212.000 195.772,211.903 196.364,211.785 196.482 C 211.666 196.601,211.579 214.271,211.592 235.749 L 211.615 274.800 191.271 274.800 L 170.928 274.800 170.664 265.735 C 170.328 254.203,170.316 152.520,170.650 150.850 L 170.900 149.600 191.250 149.600 L 211.600 149.600 211.600 157.711 C 211.600 164.407,211.491 165.977,210.977 166.712 C 210.249 167.750,210.512 168.400,211.661 168.400 C 212.138 168.400,212.561 168.069,212.684 167.600 C 212.799 167.160,213.052 166.800,213.247 166.800 C 213.441 166.800,213.600 166.528,213.600 166.196 C 213.600 165.864,214.140 165.028,214.800 164.337 C 215.460 163.646,216.000 162.718,216.000 162.274 C 216.000 161.830,216.107 161.574,216.239 161.705 C 216.370 161.836,217.236 161.191,218.163 160.272 C 219.091 159.352,220.611 157.919,221.540 157.087 C 222.503 156.225,223.112 155.381,222.954 155.125 C 222.788 154.858,222.856 154.788,223.122 154.952 C 223.674 155.293,225.200 154.385,225.200 153.716 C 225.200 153.446,225.431 153.314,225.714 153.422 C 225.997 153.531,226.619 153.255,227.097 152.810 C 227.575 152.364,228.244 152.000,228.583 152.000 C 228.922 152.000,229.200 151.820,229.200 151.600 C 229.200 151.380,229.560 151.200,230.000 151.200 C 230.440 151.200,230.800 151.020,230.800 150.800 C 230.800 150.580,231.171 150.400,231.624 150.400 C 232.077 150.400,232.359 150.257,232.251 150.083 C 232.144 149.909,232.628 149.723,233.328 149.670 C 234.027 149.618,234.660 149.400,234.733 149.187 C 234.807 148.974,235.482 148.800,236.233 148.800 C 236.985 148.800,237.600 148.620,237.600 148.400 C 237.600 148.180,238.326 148.000,239.213 148.000 C 240.134 148.000,240.907 147.786,241.017 147.500 C 241.162 147.121,243.297 147.000,249.804 147.000 C 256.414 147.000,258.400 147.116,258.400 147.500 M145.600 212.200 L 145.600 274.800 125.400 274.800 L 105.200 274.800 105.200 212.200 L 105.200 149.600 125.400 149.600 L 145.600 149.600 145.600 212.200 " stroke="none" fill="#009688" fill-rule="evenodd"></path><path id="path1" d="M102.546 109.800 C 102.547 112.000,102.614 112.849,102.695 111.687 C 102.776 110.524,102.776 108.724,102.693 107.687 C 102.611 106.649,102.545 107.600,102.546 109.800 M242.105 147.087 C 242.714 147.179,243.614 147.177,244.105 147.082 C 244.597 146.987,244.100 146.911,243.000 146.914 C 241.900 146.917,241.497 146.995,242.105 147.087 M255.300 147.087 C 255.905 147.178,256.895 147.178,257.500 147.087 C 258.105 146.995,257.610 146.920,256.400 146.920 C 255.190 146.920,254.695 146.995,255.300 147.087 M211.369 157.800 C 211.370 162.420,211.428 164.255,211.499 161.878 C 211.570 159.501,211.569 155.721,211.498 153.478 C 211.427 151.235,211.369 153.180,211.369 157.800 M170.594 207.000 C 170.595 237.800,170.642 250.341,170.700 234.869 C 170.758 219.397,170.758 194.197,170.700 178.869 C 170.642 163.541,170.594 176.200,170.594 207.000 M211.392 236.400 C 211.392 257.630,211.441 266.315,211.500 255.700 C 211.559 245.085,211.559 227.715,211.500 217.100 C 211.441 206.485,211.392 215.170,211.392 236.400 " stroke="none" fill="#009688" fill-rule="evenodd"></path><path id="path2" d="M102.546 109.800 C 102.547 112.000,102.614 112.849,102.695 111.687 C 102.776 110.524,102.776 108.724,102.693 107.687 C 102.611 106.649,102.545 107.600,102.546 109.800 M242.105 147.087 C 242.714 147.179,243.614 147.177,244.105 147.082 C 244.597 146.987,244.100 146.911,243.000 146.914 C 241.900 146.917,241.497 146.995,242.105 147.087 M255.300 147.087 C 255.905 147.178,256.895 147.178,257.500 147.087 C 258.105 146.995,257.610 146.920,256.400 146.920 C 255.190 146.920,254.695 146.995,255.300 147.087 M211.369 157.800 C 211.370 162.420,211.428 164.255,211.499 161.878 C 211.570 159.501,211.569 155.721,211.498 153.478 C 211.427 151.235,211.369 153.180,211.369 157.800 M170.594 207.000 C 170.595 237.800,170.642 250.341,170.700 234.869 C 170.758 219.397,170.758 194.197,170.700 178.869 C 170.642 163.541,170.594 176.200,170.594 207.000 M211.392 236.400 C 211.392 257.630,211.441 266.315,211.500 255.700 C 211.559 245.085,211.559 227.715,211.500 217.100 C 211.441 206.485,211.392 215.170,211.392 236.400 " stroke="none" fill="#009688" fill-rule="evenodd"></path><path id="path3" d="M102.546 109.800 C 102.547 112.000,102.614 112.849,102.695 111.687 C 102.776 110.524,102.776 108.724,102.693 107.687 C 102.611 106.649,102.545 107.600,102.546 109.800 M242.105 147.087 C 242.714 147.179,243.614 147.177,244.105 147.082 C 244.597 146.987,244.100 146.911,243.000 146.914 C 241.900 146.917,241.497 146.995,242.105 147.087 M255.300 147.087 C 255.905 147.178,256.895 147.178,257.500 147.087 C 258.105 146.995,257.610 146.920,256.400 146.920 C 255.190 146.920,254.695 146.995,255.300 147.087 M211.369 157.800 C 211.370 162.420,211.428 164.255,211.499 161.878 C 211.570 159.501,211.569 155.721,211.498 153.478 C 211.427 151.235,211.369 153.180,211.369 157.800 M170.594 207.000 C 170.595 237.800,170.642 250.341,170.700 234.869 C 170.758 219.397,170.758 194.197,170.700 178.869 C 170.642 163.541,170.594 176.200,170.594 207.000 M211.392 236.400 C 211.392 257.630,211.441 266.315,211.500 255.700 C 211.559 245.085,211.559 227.715,211.500 217.100 C 211.441 206.485,211.392 215.170,211.392 236.400 " stroke="none" fill="#009688" fill-rule="evenodd"></path><path id="path4" d="M102.546 109.800 C 102.547 112.000,102.614 112.849,102.695 111.687 C 102.776 110.524,102.776 108.724,102.693 107.687 C 102.611 106.649,102.545 107.600,102.546 109.800 M242.105 147.087 C 242.714 147.179,243.614 147.177,244.105 147.082 C 244.597 146.987,244.100 146.911,243.000 146.914 C 241.900 146.917,241.497 146.995,242.105 147.087 M255.300 147.087 C 255.905 147.178,256.895 147.178,257.500 147.087 C 258.105 146.995,257.610 146.920,256.400 146.920 C 255.190 146.920,254.695 146.995,255.300 147.087 M211.369 157.800 C 211.370 162.420,211.428 164.255,211.499 161.878 C 211.570 159.501,211.569 155.721,211.498 153.478 C 211.427 151.235,211.369 153.180,211.369 157.800 M170.594 207.000 C 170.595 237.800,170.642 250.341,170.700 234.869 C 170.758 219.397,170.758 194.197,170.700 178.869 C 170.642 163.541,170.594 176.200,170.594 207.000 M211.392 236.400 C 211.392 257.630,211.441 266.315,211.500 255.700 C 211.559 245.085,211.559 227.715,211.500 217.100 C 211.441 206.485,211.392 215.170,211.392 236.400 " stroke="none" fill="#009688" fill-rule="evenodd"></path></g></svg>